<svg width="292" height="117" viewBox="0 0 292 117" fill="none" xmlns="http://www.w3.org/2000/svg">
<path d="M153.549 86.4745H137.568V65.6652H153.549V86.4745ZM136.511 64.2612V87.8772H154.649V64.2612H136.511Z" fill="#252545"/>
<path d="M158.787 98.8665C158.787 101.066 156.988 102.866 154.787 102.866H136.323C134.123 102.866 132.323 101.066 132.323 98.8665V83.4439C132.323 81.2439 134.123 79.4439 136.323 79.4439H154.787C156.988 79.4439 158.787 81.2439 158.787 83.4439V98.8665Z" fill="#9AD567"/>
<path d="M155.479 83.4012C155.479 84.3146 154.737 85.0559 153.825 85.0559C152.912 85.0559 152.171 84.3146 152.171 83.4012C152.171 82.4879 152.912 81.7479 153.825 81.7479C154.737 81.7479 155.479 82.4879 155.479 83.4012Z" fill="white"/>
<path d="M153.272 91.1562C153.272 95.4176 149.817 98.8723 145.555 98.8723C141.293 98.8723 137.837 95.4176 137.837 91.1562C137.837 86.8934 141.293 83.44 145.555 83.44C149.817 83.44 153.272 86.8934 153.272 91.1562Z" fill="#252545"/>
<path d="M151.436 91.1561C151.436 94.4024 148.803 97.0347 145.555 97.0347C142.307 97.0347 139.673 94.4024 139.673 91.1561C139.673 87.908 142.307 85.276 145.555 85.276C148.803 85.276 151.436 87.908 151.436 91.1561Z" fill="#9AD567"/>
<path d="M150.749 91.156C150.749 94.0236 148.423 96.3508 145.555 96.3508C142.687 96.3508 140.361 94.0236 140.361 91.156C140.361 88.2866 142.687 85.9599 145.555 85.9599C148.423 85.9599 150.749 88.2866 150.749 91.156Z" fill="white"/>
<path d="M148.283 91.1561C148.283 92.6628 147.06 93.8843 145.555 93.8843C144.048 93.8843 142.825 92.6628 142.825 91.1561C142.825 89.648 144.048 88.4267 145.555 88.4267C147.06 88.4267 148.283 89.648 148.283 91.1561Z" fill="#252545"/>
<path d="M104.628 25.992L126.268 59.6187H145.567V25.992H104.628Z" fill="#434E67"/>
<path d="M104.628 25.9919C104.628 25.9919 78.4547 28.1826 67.3427 23.0639C67.1974 23.2146 44.2427 34.0319 31.9614 33.0079C19.6787 31.9853 28.5987 60.9359 59.5974 42.8039C68.8054 38.1253 79.1854 41.0493 93.2214 40.9039C107.261 40.7573 114.392 41.1626 114.392 41.1626L104.628 25.9919Z" fill="#434E67"/>
<path d="M73.4227 24.9479C73.4227 24.9479 77.1281 29.4399 75.4534 40.1785L82.9907 40.5825C82.9907 40.5825 85.6921 31.5279 81.3094 26.0452C81.3094 26.0452 75.7507 25.5052 73.4227 24.9479Z" fill="#252545"/>
<path d="M67.3427 23.064C67.3427 23.064 73.9867 29.6334 70.5187 35.9267C69.5387 37.3934 63.3961 36.8094 55.7934 41.78C48.1894 46.752 32.0654 47.1334 27.188 40.5827C27.1134 40.3734 24.8894 34.024 30.92 32.996C32.4547 32.732 33.7587 33.2881 36.9307 32.8881C41.6094 32.2947 51.1507 30.596 67.3427 23.064Z" fill="#9AD567"/>
<path d="M145.567 25.9919V2.96128L104.628 25.9919H145.567Z" fill="#9AD567"/>
<path d="M95.4801 40.9761L90.9561 55.1587V116.787H94.6827L97.5334 56.6947L108.948 40.9761H95.4801Z" fill="#252545"/>
<path d="M40.8093 7.18799L52.6653 -1.58476e-05L85.68 5.84132L40.8093 7.18799Z" fill="#252545"/>
<path d="M72.892 3.59741L52.5854 8.15946e-05L46.6587 3.59741H72.892Z" fill="#9AD567"/>
<path d="M44.8707 4.63192L33.0146 11.8159L0 5.97593L44.8707 4.63192Z" fill="#252545"/>
<path d="M12.7881 8.22259L33.0948 11.8159L39.0241 8.22259H12.7881Z" fill="#9AD567"/>
<path d="M44.8707 8.95467C44.8707 10.4213 43.956 11.6213 42.8387 11.6213C41.7227 11.6213 40.8093 10.4213 40.8093 8.95467V4.77601C40.8093 3.30934 41.7227 2.10934 42.8387 2.10934C43.956 2.10934 44.8707 3.30934 44.8707 4.77601V8.95467Z" fill="#434E67"/>
<path d="M44.8707 11.708H40.8093V9.53467H44.8707V11.708Z" fill="#434E67"/>
<path d="M52.8507 23.0559H52.8694C52.5508 21.2706 50.5907 19.7399 47.7907 18.8746V14.2266H37.8614V18.7186C34.7761 19.5439 32.5894 21.1599 32.2521 23.0559H32.2708L32.2521 23.0639V35.0546C32.2521 35.0546 42.4881 40.5826 52.8694 35.0546C52.7228 34.9079 52.8694 23.0639 52.8694 23.0639L52.8507 23.0559Z" fill="#434E67"/>
<path d="M46.8747 14.2266H38.6707V11.6999H46.8747V14.2266Z" fill="#252545"/>
<path d="M145.579 68.2107H134.152V64.2774H145.579V68.2107Z" fill="#9AD567"/>
<path d="M145.579 72.1399H136.528V68.2106H145.579V72.1399Z" fill="#434E67"/>
<path d="M145.579 76.0693H140.071V72.14H145.579V76.0693Z" fill="#252545"/>
<path d="M151.087 76.0693H145.579V72.14H151.087V76.0693Z" fill="#252545"/>
<path d="M145.579 64.2773H131.043V59.616H145.579V64.2773Z" fill="#252545"/>
<path d="M186.505 25.992L164.867 59.6187H145.567V25.992H186.505Z" fill="#434E67"/>
<path d="M186.505 25.9919C186.505 25.9919 212.679 28.1826 223.791 23.0639C223.936 23.2146 246.891 34.0319 259.172 33.0079C271.455 31.9853 262.536 60.9359 231.537 42.8039C222.328 38.1253 211.948 41.0493 197.912 40.9039C183.873 40.7573 176.741 41.1626 176.741 41.1626L186.505 25.9919Z" fill="#434E67"/>
<path d="M217.712 24.9479C217.712 24.9479 214.005 29.4399 215.68 40.1785L208.144 40.5825C208.144 40.5825 205.441 31.5279 209.825 26.0452C209.825 26.0452 215.383 25.5052 217.712 24.9479Z" fill="#252545"/>
<path d="M223.791 23.064C223.791 23.064 217.148 29.6334 220.615 35.9267C221.596 37.3934 227.737 36.8094 235.34 41.78C242.944 46.752 259.068 47.1334 263.945 40.5827C264.02 40.3734 266.244 34.024 260.215 32.996C258.679 32.732 257.376 33.2881 254.204 32.8881C249.524 32.2947 239.984 30.596 223.791 23.064Z" fill="#9AD567"/>
<path d="M145.567 25.9919V2.96128L186.505 25.9919H145.567Z" fill="#9AD567"/>
<path d="M195.655 40.9761L200.177 55.1587V116.787H196.451L193.601 56.6947L182.185 40.9761H195.655Z" fill="#252545"/>
<path d="M250.325 7.18799L238.468 -1.58476e-05L205.453 5.84132L250.325 7.18799Z" fill="#252545"/>
<path d="M218.241 3.59741L238.548 8.15946e-05L244.475 3.59741H218.241Z" fill="#9AD567"/>
<path d="M246.264 4.63192L258.119 11.8159L291.133 5.97593L246.264 4.63192Z" fill="#252545"/>
<path d="M278.345 8.22259L258.04 11.8159L252.109 8.22259H278.345Z" fill="#9AD567"/>
<path d="M246.264 8.95467C246.264 10.4213 247.177 11.6213 248.293 11.6213C249.411 11.6213 250.325 10.4213 250.325 8.95467V4.77601C250.325 3.30934 249.411 2.10934 248.293 2.10934C247.177 2.10934 246.264 3.30934 246.264 4.77601V8.95467Z" fill="#434E67"/>
<path d="M246.264 11.708H250.325V9.53467H246.264V11.708Z" fill="#434E67"/>
<path d="M238.283 23.0559H238.265C238.583 21.2706 240.544 19.7399 243.343 18.8746V14.2266H253.272V18.7186C256.357 19.5439 258.545 21.1599 258.881 23.0559H258.863L258.881 23.0639V35.0546C258.881 35.0546 248.647 40.5826 238.265 35.0546C238.411 34.9079 238.265 23.0639 238.265 23.0639L238.283 23.0559Z" fill="#434E67"/>
<path d="M244.26 14.2266H252.463V11.6999H244.26V14.2266Z" fill="#252545"/>
<path d="M145.555 68.2107H156.983V64.2774H145.555V68.2107Z" fill="#9AD567"/>
<path d="M145.555 72.1399H154.605V68.2106H145.555V72.1399Z" fill="#434E67"/>
<path d="M145.555 64.2773H160.092V59.616H145.555V64.2773Z" fill="#252545"/>
</svg>
